<svg width="128" height="128" viewBox="0 0 128 128" fill="none" xmlns="http://www.w3.org/2000/svg">
<rect width="128" height="128" rx="25" fill="#09090B"/>
<path d="M61.9997 24H65.9997V38.8955C65.2748 38.8323 64.541 38.8 63.7996 38.8C63.1944 38.8 62.5942 38.8215 61.9997 38.8638V24Z" fill="white"/>
<path d="M59.4224 39.1819L55.5807 24.8447L51.717 25.88L55.552 40.1924C56.8 39.7565 58.093 39.4167 59.4224 39.1819Z" fill="white"/>
<path d="M53.1369 41.1814L45.7337 28.3586L42.2696 30.3586L49.6686 43.174C50.7649 42.4215 51.9242 41.7541 53.1369 41.1814Z" fill="white"/>
<path d="M47.5941 44.763L37.1314 34.3002L34.3029 37.1286L44.7655 47.5912C45.6317 46.575 46.5778 45.629 47.5941 44.763Z" fill="white"/>
<path d="M43.1762 49.6652L30.3599 42.2656L28.3599 45.7297L41.183 53.1331C41.7559 51.9205 42.4235 50.7613 43.1762 49.6652Z" fill="white"/>
<path d="M40.1935 55.5482L25.881 51.7132L24.8457 55.5769L39.1823 59.4184C39.4173 58.0891 39.7573 56.7961 40.1935 55.5482Z" fill="white"/>
<path d="M38.8635 61.9984H24V65.9984H38.8949C38.8318 65.274 38.7996 64.5408 38.7996 63.8C38.7996 63.1942 38.8212 62.5934 38.8635 61.9984Z" fill="white"/>
<path d="M39.2521 68.5592L24.845 72.4196L25.8802 76.2833L40.323 72.4134C39.8674 71.1718 39.5074 69.8842 39.2521 68.5592Z" fill="white"/>
<path d="M41.3321 74.7769L28.3585 82.2672L30.3585 85.7313L43.3731 78.2173C42.6051 77.1313 41.9216 75.9813 41.3321 74.7769Z" fill="white"/>
<path d="M44.9492 80.222L34.3011 90.8701L37.1295 93.6985L47.8096 83.0185C46.7833 82.1637 45.8266 81.2283 44.9492 80.222Z" fill="white"/>
<path d="M49.833 84.5379L42.2677 97.6414L45.7318 99.6414L53.3173 86.5029C52.0997 85.9398 50.9351 85.2816 49.833 84.5379Z" fill="white"/>
<path d="M55.6482 87.4409L51.7151 102.119L55.5788 103.155L59.5227 88.4356C58.1923 88.2062 56.8978 87.8717 55.6482 87.4409Z" fill="white"/>
<path d="M61.9997 88.7362V104H65.9997V88.7045C65.2748 88.7677 64.541 88.8 63.7996 88.8C63.1944 88.8 62.5942 88.7785 61.9997 88.7362Z" fill="white"/>
<path d="M68.4602 88.3664L72.4225 103.154L76.2862 102.119L72.3185 87.311C71.0753 87.7616 69.7862 88.1163 68.4602 88.3664Z" fill="white"/>
<path d="M74.5984 86.3538L82.2696 99.6406L85.7337 97.6406L78.0547 84.3403C76.9629 85.0995 75.8076 85.7738 74.5984 86.3538Z" fill="white"/>
<path d="M80.0084 82.8341L90.8715 93.6972L93.6999 90.8688L82.8366 80.0055C81.9706 81.0218 81.0246 81.9679 80.0084 82.8341Z" fill="white"/>
<path d="M84.3425 78.0513L97.6419 85.7297L99.6419 82.2656L86.3554 74.5947C85.7757 75.8039 85.1015 76.9593 84.3425 78.0513Z" fill="white"/>
<path d="M87.3122 72.3148L102.12 76.2825L103.155 72.4188L88.3668 68.4562C88.117 69.7824 87.7625 71.0715 87.3122 72.3148Z" fill="white"/>
<path d="M88.7043 65.9984H104V61.9984H88.7357C88.7781 62.5934 88.7996 63.1942 88.7996 63.8C88.7996 64.5408 88.7674 65.274 88.7043 65.9984Z" fill="white"/>
<path d="M88.435 59.5218L103.154 55.5778L102.119 51.7141L87.4401 55.6473C87.871 56.8969 88.2056 58.1913 88.435 59.5218Z" fill="white"/>
<path d="M86.5021 53.3168L99.6405 45.7313L97.6405 42.2672L84.5369 49.8325C85.2807 50.9346 85.9389 52.0992 86.5021 53.3168Z" fill="white"/>
<path d="M83.0181 47.8099L93.6981 37.13L90.8696 34.3016L80.2216 44.9496C81.2279 45.827 82.1633 46.7837 83.0181 47.8099Z" fill="white"/>
<path d="M78.2178 43.374L85.7318 30.3594L82.2677 28.3594L74.7774 41.3329C75.9818 41.9225 77.1317 42.606 78.2178 43.374Z" fill="white"/>
<path d="M72.4142 40.3239L76.2843 25.8806L72.4206 24.8453L68.5602 39.2527C69.8851 39.5081 71.1727 39.8682 72.4142 40.3239Z" fill="white"/>
</svg>
