<svg width="200" height="200" viewBox="0 0 200 200" fill="none" xmlns="http://www.w3.org/2000/svg">
<path d="M94.9993 0H104.999V37.2387C103.187 37.0807 101.352 37 99.499 37C97.9859 37 96.4854 37.0538 94.9993 37.1595V0Z" fill="#52525B"/>
<path d="M88.5559 37.9548L78.9518 2.11172L69.2925 4.69991L78.88 40.4811C81.9999 39.3912 85.2326 38.5417 88.5559 37.9548Z" fill="#52525B"/>
<path d="M72.8423 42.9535L54.3342 10.8965L45.674 15.8965L64.1714 47.935C66.9121 46.0537 69.8104 44.3853 72.8423 42.9535Z" fill="#52525B"/>
<path d="M58.9854 51.9075L32.8284 25.7505L25.7573 32.8216L51.9137 58.9779C54.0792 56.4375 56.4445 54.0725 58.9854 51.9075Z" fill="#52525B"/>
<path d="M47.9406 64.1629L15.8997 45.6641L10.8997 54.3243L42.9574 72.8329C44.3898 69.8012 46.0588 66.9033 47.9406 64.1629Z" fill="#52525B"/>
<path d="M40.4837 78.8706L4.70253 69.2831L2.11434 78.9423L37.9557 88.546C38.5432 85.2228 39.3933 81.9903 40.4837 78.8706Z" fill="#52525B"/>
<path d="M37.1588 94.9961H0V104.996H37.2374C37.0796 103.185 36.999 101.352 36.999 99.5C36.999 97.9855 37.0529 96.4836 37.1588 94.9961Z" fill="#52525B"/>
<path d="M38.1301 111.398L2.11243 121.049L4.70062 130.708L40.8076 121.033C39.6685 117.93 38.7686 114.71 38.1301 111.398Z" fill="#52525B"/>
<path d="M43.3302 126.942L10.8962 145.668L15.8962 154.328L48.4327 135.543C46.5128 132.828 44.804 129.953 43.3302 126.942Z" fill="#52525B"/>
<path d="M52.3731 140.555L25.7527 167.175L32.8238 174.246L59.5239 147.546C56.9583 145.409 54.5666 143.071 52.3731 140.555Z" fill="#52525B"/>
<path d="M64.5825 151.345L45.6692 184.104L54.3294 189.104L73.2932 156.257C70.2493 154.849 67.3378 153.204 64.5825 151.345Z" fill="#52525B"/>
<path d="M79.1204 158.602L69.2877 195.298L78.9469 197.887L88.8068 161.089C85.4807 160.516 82.2445 159.679 79.1204 158.602Z" fill="#52525B"/>
<path d="M94.9993 161.84V200H104.999V161.761C103.187 161.919 101.352 162 99.499 162C97.9859 162 96.4854 161.946 94.9993 161.84Z" fill="#52525B"/>
<path d="M111.15 160.916L121.056 197.885L130.716 195.297L120.796 158.278C117.688 159.404 114.466 160.291 111.15 160.916Z" fill="#52525B"/>
<path d="M126.496 155.885L145.674 189.102L154.334 184.102L135.137 150.851C132.407 152.749 129.519 154.435 126.496 155.885Z" fill="#52525B"/>
<path d="M140.021 147.085L167.179 174.243L174.25 167.172L147.092 140.014C144.926 142.555 142.562 144.92 140.021 147.085Z" fill="#52525B"/>
<path d="M150.856 135.128L184.105 154.324L189.105 145.664L155.889 126.487C154.439 129.51 152.754 132.398 150.856 135.128Z" fill="#52525B"/>
<path d="M158.28 120.787L195.299 130.706L197.888 121.047L160.917 111.141C160.292 114.456 159.406 117.679 158.28 120.787Z" fill="#52525B"/>
<path d="M161.761 104.996H200V94.9961H161.839C161.945 96.4836 161.999 97.9855 161.999 99.5C161.999 101.352 161.918 103.185 161.761 104.996Z" fill="#52525B"/>
<path d="M161.087 88.8045L197.886 78.9444L195.298 69.2852L158.6 79.1182C159.677 82.2422 160.514 85.4784 161.087 88.8045Z" fill="#52525B"/>
<path d="M156.255 73.2919L189.101 54.3282L184.101 45.668L151.342 64.5814C153.202 67.3366 154.847 70.248 156.255 73.2919Z" fill="#52525B"/>
<path d="M147.545 59.5249L174.245 32.825L167.174 25.7539L140.554 52.374C143.07 54.5676 145.408 56.9593 147.545 59.5249Z" fill="#52525B"/>
<path d="M135.544 48.4351L154.329 15.8984L145.669 10.8984L126.943 43.3323C129.954 44.8062 132.829 46.5151 135.544 48.4351Z" fill="#52525B"/>
<path d="M121.036 40.8097L130.711 4.70147L121.051 2.11328L111.4 38.1318C114.713 38.7703 117.932 39.6704 121.036 40.8097Z" fill="#52525B"/>
</svg>
